<?xml version="1.0" encoding="utf-8"?>
<!-- Generator: Adobe Illustrator 14.0.0, SVG Export Plug-In . SVG Version: 6.00 Build 43363)  -->
<!DOCTYPE svg PUBLIC "-//W3C//DTD SVG 1.1//EN" "http://www.w3.org/Graphics/SVG/1.1/DTD/svg11.dtd">
<svg version="1.1" id="Layer_1" xmlns:gliffy="http://www.gliffy.com"
	 xmlns="http://www.w3.org/2000/svg" xmlns:xlink="http://www.w3.org/1999/xlink" x="0px" y="0px" width="830px" height="480px"
	 viewBox="0 0 830 480" enable-background="new 0 0 830 480" xml:space="preserve">
<rect x="0" fill="#FFFFFF" width="744.5" height="396.5"/>
<g transform="translate(521.0,60.0) rotate(0 100.0 60.0)">
	<g transform="translate(0.0,0.0)">
		
			<linearGradient id="SVGID_1_" gradientUnits="userSpaceOnUse" x1="-269.678" y1="17.834" x2="-269.678" y2="19.084" gradientTransform="matrix(199.2032 0 0 20 53820.2656 -361.6875)">
			<stop  offset="0" style="stop-color:#FFFFFF"/>
			<stop  offset="1" style="stop-color:#6CCFF7"/>
		</linearGradient>
		<rect x="0" fill="url(#SVGID_1_)" stroke="#747474" width="199.202" height="20"/>
	</g>
	<g transform="translate(0.0,20.0)">
		
			<linearGradient id="SVGID_2_" gradientUnits="userSpaceOnUse" x1="-269.6775" y1="16.9727" x2="-269.6775" y2="18.2227" gradientTransform="matrix(199.2032 0 0 21 53820.2656 -361.6875)">
			<stop  offset="0" style="stop-color:#FFFFFF"/>
			<stop  offset="1" style="stop-color:#6CCFF7"/>
		</linearGradient>
		<rect x="0" fill="url(#SVGID_2_)" stroke="#747474" width="199.202" height="21"/>
	</g>
	<g transform="translate(0.0,41.0)">
		
			<linearGradient id="SVGID_3_" gradientUnits="userSpaceOnUse" x1="-269.678" y1="4.3281" x2="-269.678" y2="5.5781" gradientTransform="matrix(199.2032 0 0 79 53820.2656 -361.625)">
			<stop  offset="0" style="stop-color:#FFFFFF"/>
			<stop  offset="1" style="stop-color:#6CCFF7"/>
		</linearGradient>
		<rect x="0" fill="url(#SVGID_3_)" stroke="#747474" width="199.202" height="79"/>
	</g>
	<g transform="translate(0.0,15.0)">
		<text transform="matrix(1 0 0 1 60.6506 -2)" font-family="'HelveticaNeueLTCom-LtIt'" font-size="12">M.Observable</text>
	</g>
	<g transform="translate(0.0,38.0)">
		<text transform="matrix(1 0 0 1 2.0002 -2)" font-family="'HelveticaNeueLTCom-Lt'" font-size="13">+</text>
		<text transform="matrix(1 0 0 1 9.592 -2)" font-family="'HelveticaNeueLTCom-Lt'" font-size="13"> bindingList</text>
	</g>
	<g transform="translate(0.0,58.0)">
		<text transform="matrix(1 0 0 1 2.0002 -2)" font-family="'HelveticaNeueLTCom-Lt'" font-size="12">+</text>
		<text transform="matrix(1 0 0 1 9.0081 -2)" font-family="'HelveticaNeueLTCom-Lt'" font-size="12"> attach()</text>
		<text transform="matrix(1 0 0 1 2.0002 12.7998)" font-family="'HelveticaNeueLTCom-Lt'" font-size="12">+</text>
		<text transform="matrix(1 0 0 1 9.0081 12.7998)" font-family="'HelveticaNeueLTCom-Lt'" font-size="12"> detach()</text>
		<text transform="matrix(1 0 0 1 2.0002 27.5996)" font-family="'HelveticaNeueLTCom-Lt'" font-size="12">+</text>
		<text transform="matrix(1 0 0 1 9.0081 27.5996)" font-family="'HelveticaNeueLTCom-Lt'" font-size="12"> notifyObservers()</text>
	</g>
</g>
<g transform="translate(21.0,40.0)">
	<line fill="none" stroke="#333333" stroke-dasharray="23,0" x1="0" y1="0" x2="601" y2="0"/>
	<g transform="translate(290.5,0.0)">
	</g>
</g>
<g transform="translate(26.0,10.5) rotate(0 75.0 12.5)">
	<g transform="translate(0.0,20.5)">
		<text transform="matrix(1 0 0 1 2.0002 -3)" font-family="'HelveticaNeueLTCom-Lt'" font-size="18">The Observer Pattern</text>
	</g>
</g>
<g transform="translate(161.0,60.0) rotate(0 100.0 60.0)">
	<g transform="translate(0.0,0.0)">
		
			<linearGradient id="SVGID_4_" gradientUnits="userSpaceOnUse" x1="450.3225" y1="17.834" x2="450.3225" y2="19.084" gradientTransform="matrix(199.2032 0 0 20 -89606.0156 -361.6875)">
			<stop  offset="0" style="stop-color:#FFFFFF"/>
			<stop  offset="1" style="stop-color:#6CCFF7"/>
		</linearGradient>
		<rect x="0" fill="url(#SVGID_4_)" stroke="#747474" width="199.202" height="20"/>
	</g>
	<g transform="translate(0.0,20.0)">
		
			<linearGradient id="SVGID_5_" gradientUnits="userSpaceOnUse" x1="450.3225" y1="17.834" x2="450.3225" y2="19.084" gradientTransform="matrix(199.2032 0 0 20 -89606.0156 -361.6875)">
			<stop  offset="0" style="stop-color:#FFFFFF"/>
			<stop  offset="1" style="stop-color:#6CCFF7"/>
		</linearGradient>
		<rect x="0" fill="url(#SVGID_5_)" stroke="#747474" width="199.202" height="20"/>
	</g>
	<g transform="translate(0.0,40.0)">
		
			<linearGradient id="SVGID_6_" gradientUnits="userSpaceOnUse" x1="450.3225" y1="4.271" x2="450.3225" y2="5.521" gradientTransform="matrix(199.2032 0 0 80 -89606.0156 -361.625)">
			<stop  offset="0" style="stop-color:#FFFFFF"/>
			<stop  offset="1" style="stop-color:#6CCFF7"/>
		</linearGradient>
		<rect x="0" fill="url(#SVGID_6_)" stroke="#747474" width="199.202" height="80"/>
	</g>
	<g transform="translate(0.0,15.0)">
		<text transform="matrix(1 0 0 1 79.884 -2)" font-family="'HelveticaNeueLTCom-LtIt'" font-size="12">M.View</text>
	</g>
	<g transform="translate(0.0,57.0)">
		<text transform="matrix(1 0 0 1 2.0002 -2)" font-family="'HelveticaNeueLTCom-Lt'" font-size="12">+</text>
		<text transform="matrix(1 0 0 1 9.0081 -2)" font-family="'HelveticaNeueLTCom-Lt'" font-size="12"> contentDidChange()</text>
	</g>
</g>
<g transform="translate(511.0,220.0) rotate(0 110.0 35.0)">
	<polygon fill="#FFFFFF" stroke="#000000" points="0,0 188.446,0 219.122,16.225 219.122,69.537 0,69.537 	"/>
	<line fill="none" stroke="#000000" x1="188.446" y1="0" x2="188.446" y2="16.225"/>
	<line fill="none" stroke="#000000" x1="188.446" y1="16.225" x2="219.122" y2="16.225"/>
	<g transform="translate(0.0,25.0)">
		<text transform="matrix(1 0 0 1 2.0002 -2)" font-family="'HelveticaNeueLTCom-Lt'" font-size="12">notifyObservers()</text>
		<text transform="matrix(1 0 0 1 2.0002 12.7998)" font-family="'HelveticaNeueLTCom-Lt'" font-size="12">    for observer in bindingList</text>
		<text transform="matrix(1 0 0 1 2.0002 27.5996)" font-family="'HelveticaNeueLTCom-Lt'" font-size="12">        observer.contentDidChange()</text>
	</g>
</g>
<g transform="translate(621.0,180.0)">
	<path fill="none" stroke="#000000" stroke-dasharray="10,6" d="M0,0v20l0,0v19"/>
	<g transform="translate(0.0,40.0) rotate(270.0)">
		<line fill="none" stroke="#000000" x1="0" y1="0" x2="12" y2="-5"/>
		<line fill="none" stroke="#000000" x1="0" y1="0" x2="12" y2="5"/>
	</g>
	<g transform="translate(0.0,20.0)">
	</g>
</g>
<g transform="translate(361.0,120.0)">
	<path fill="none" stroke="#000000" stroke-dasharray="23,0" d="M0,0h80l0,0h79"/>
	<g transform="translate(160.0,0.0) rotate(180.0)">
		<polygon fill="#FFFFFF" stroke="#000000" points="0,0 8,6 16,0 8,-6 		"/>
	</g>
	<g transform="translate(80.0,0.0)">
	</g>
</g>
<g transform="translate(21.0,260.0) rotate(0 100.0 60.0)">
	<g transform="translate(0.0,0.0)">
		
			<linearGradient id="SVGID_7_" gradientUnits="userSpaceOnUse" x1="730.3225" y1="17.834" x2="730.3225" y2="19.084" gradientTransform="matrix(199.2032 0 0 20 -145382.8281 -361.6875)">
			<stop  offset="0" style="stop-color:#FFFFFF"/>
			<stop  offset="1" style="stop-color:#999999"/>
		</linearGradient>
		<rect x="0" fill="url(#SVGID_7_)" stroke="#747474" width="199.203" height="20"/>
	</g>
	<g transform="translate(0.0,20.0)">
		
			<linearGradient id="SVGID_8_" gradientUnits="userSpaceOnUse" x1="730.3225" y1="17.834" x2="730.3225" y2="19.084" gradientTransform="matrix(199.2032 0 0 20 -145382.8281 -361.6875)">
			<stop  offset="0" style="stop-color:#FFFFFF"/>
			<stop  offset="1" style="stop-color:#999999"/>
		</linearGradient>
		<rect x="0" fill="url(#SVGID_8_)" stroke="#747474" width="199.203" height="20"/>
	</g>
	<g transform="translate(0.0,40.0)">
		
			<linearGradient id="SVGID_9_" gradientUnits="userSpaceOnUse" x1="730.3225" y1="4.2715" x2="730.3225" y2="5.5215" gradientTransform="matrix(199.2032 0 0 80 -145382.8281 -361.625)">
			<stop  offset="0" style="stop-color:#FFFFFF"/>
			<stop  offset="1" style="stop-color:#999999"/>
		</linearGradient>
		<rect x="0" fill="url(#SVGID_9_)" stroke="#747474" width="199.203" height="80"/>
	</g>
	<g transform="translate(0.0,15.0)">
		<text transform="matrix(1 0 0 1 60.5608 -2)" font-family="'HelveticaNeueLTCom-LtIt'" font-size="12">M.ButtonView</text>
	</g>
	<g transform="translate(0.0,57.0)">
		<text transform="matrix(1 0 0 1 2.0002 -2)" font-family="'HelveticaNeueLTCom-Lt'" font-size="12">+</text>
		<text transform="matrix(1 0 0 1 9.0081 -2)" font-family="'HelveticaNeueLTCom-Lt'" font-size="12"> contentDidChange()</text>
	</g>
</g>
<g transform="translate(301.0,260.0) rotate(0 100.0 60.0)">
	<g transform="translate(0.0,0.0)">
		
			<linearGradient id="SVGID_10_" gradientUnits="userSpaceOnUse" x1="170.3215" y1="17.834" x2="170.3215" y2="19.084" gradientTransform="matrix(199.2032 0 0 20 -33829.0664 -361.6875)">
			<stop  offset="0" style="stop-color:#FFFFFF"/>
			<stop  offset="1" style="stop-color:#999999"/>
		</linearGradient>
		<rect x="0" fill="url(#SVGID_10_)" stroke="#747474" width="199.202" height="20"/>
	</g>
	<g transform="translate(0.0,20.0)">
		
			<linearGradient id="SVGID_11_" gradientUnits="userSpaceOnUse" x1="170.3215" y1="17.834" x2="170.3215" y2="19.084" gradientTransform="matrix(199.2032 0 0 20 -33829.0664 -361.6875)">
			<stop  offset="0" style="stop-color:#FFFFFF"/>
			<stop  offset="1" style="stop-color:#999999"/>
		</linearGradient>
		<rect x="0" fill="url(#SVGID_11_)" stroke="#747474" width="199.202" height="20"/>
	</g>
	<g transform="translate(0.0,40.0)">
		
			<linearGradient id="SVGID_12_" gradientUnits="userSpaceOnUse" x1="170.3215" y1="4.2715" x2="170.3215" y2="5.5215" gradientTransform="matrix(199.2032 0 0 80 -33829.0664 -361.625)">
			<stop  offset="0" style="stop-color:#FFFFFF"/>
			<stop  offset="1" style="stop-color:#999999"/>
		</linearGradient>
		<rect x="0" fill="url(#SVGID_12_)" stroke="#747474" width="199.202" height="80"/>
	</g>
	<g transform="translate(0.0,15.0)">
		<text transform="matrix(1 0 0 1 64.2131 -2)" font-family="'HelveticaNeueLTCom-LtIt'" font-size="12">M.LabelView</text>
	</g>
	<g transform="translate(0.0,57.0)">
		<text transform="matrix(1 0 0 1 1.9998 -2)" font-family="'HelveticaNeueLTCom-Lt'" font-size="12">+</text>
		<text transform="matrix(1 0 0 1 9.0076 -2)" font-family="'HelveticaNeueLTCom-Lt'" font-size="12"> contentDidChange()</text>
	</g>
</g>
<g transform="translate(261.0,180.0)">
	<path fill="none" stroke="#000000" stroke-dasharray="23,0" d="M0,1v39h-140v40"/>
	<g transform="translate(0.0,0.0) rotate(90.0)">
		<polygon fill="#FFFFFF" stroke="#000000" points="0,0 12,7 12,-7 		"/>
	</g>
	<g transform="translate(-70.0,40.0)">
	</g>
</g>
<g transform="translate(401.0,260.0)">
	<path fill="none" stroke="#000000" stroke-dasharray="23,0" d="M0,0v-40h-140v-39"/>
	<g transform="translate(-140.0,-80.0) rotate(450.0)">
		<polygon fill="#FFFFFF" stroke="#000000" points="0,0 12,7 12,-7 		"/>
	</g>
	<g transform="translate(-70.0,-40.0)">
	</g>
</g>
</svg>
