<?xml version="1.0" encoding="utf-8"?>
<!-- Generator: Adobe Illustrator 14.0.0, SVG Export Plug-In . SVG Version: 6.00 Build 43363)  -->
<!DOCTYPE svg PUBLIC "-//W3C//DTD SVG 1.1//EN" "http://www.w3.org/Graphics/SVG/1.1/DTD/svg11.dtd">
<svg version="1.1" id="Layer_1" xmlns:gliffy="http://www.gliffy.com"
	 xmlns="http://www.w3.org/2000/svg" xmlns:xlink="http://www.w3.org/1999/xlink" x="0px" y="0px" width="846px" height="646px"
	 viewBox="0 0 846 646" enable-background="new 0 0 846 646" xml:space="preserve">
<rect x="0" fill="#FFFFFF" width="765.5" height="562.5"/>
<g transform="translate(176.0,69.5) rotate(0 60.0 237.5)">
	<g transform="translate(0.0,0.0)">
		
			<linearGradient id="SVGID_1_" gradientUnits="userSpaceOnUse" x1="217.9514" y1="277.1006" x2="217.9514" y2="275.8506" gradientTransform="matrix(119.5219 0 0 -19 -25990.1406 5260.1563)">
			<stop  offset="0" style="stop-color:#FFFFFF"/>
			<stop  offset="1" style="stop-color:#999999"/>
		</linearGradient>
		<rect x="0" fill="url(#SVGID_1_)" stroke="#999999" stroke-width="2" width="119.521" height="19"/>
	</g>
	<g transform="translate(0.0,19.0)">
		<line fill="none" stroke="#999999" stroke-width="2" x1="59.761" y1="0" x2="59.761" y2="456"/>
	</g>
	<g transform="translate(0.0,14.5)">
		<text transform="matrix(1 0 0 1 18.217 -2)" font-family="'HelveticaNeueLTCom-Lt'" font-size="12" text-decoration=" underline">M.ToolbarView</text>
	</g>
</g>
<g transform="translate(83.0,179.0)">
	<line fill="none" stroke="#747474" stroke-width="2" stroke-dasharray="23,0" x1="0" y1="0" x2="138" y2="0"/>
	<g transform="translate(140.0,0.0) rotate(180.0)">
		<polygon fill="#747474" stroke="#747474" stroke-width="2" points="3,0 9,-3 9,3 		"/>
	</g>
	<g transform="translate(60.0,0.0)">
	</g>
</g>
<g transform="translate(98.0,302.0)">
	<line fill="none" stroke="#747474" stroke-width="2" stroke-dasharray="6,12" x1="2" y1="0" x2="131.95" y2="0"/>
	<g transform="translate(0.0,0.0) rotate(0.0)">
		<polygon fill="#747474" stroke="#747474" stroke-width="2" points="3,0 9,-3 9,3 		"/>
	</g>
	<g transform="translate(55.974999999999994,0.0)">
	</g>
</g>
<g transform="translate(240.0,216.0)">
	<line fill="none" stroke="#747474" stroke-width="2" stroke-dasharray="23,0" x1="0" y1="0" x2="129" y2="0"/>
	<g transform="translate(131.0,0.0) rotate(180.0)">
		<polygon fill="#747474" stroke="#747474" stroke-width="2" points="3,0 9,-3 9,3 		"/>
	</g>
	<g transform="translate(55.5,0.0)">
	</g>
</g>
<g transform="translate(248.0,266.0)">
	<line fill="none" stroke="#747474" stroke-width="2" stroke-dasharray="6,12" x1="2" y1="0" x2="131" y2="0"/>
	<g transform="translate(0.0,0.0) rotate(0.0)">
		<polygon fill="#747474" stroke="#747474" stroke-width="2" points="3,0 9,-3 9,3 		"/>
	</g>
	<g transform="translate(55.5,0.0)">
	</g>
</g>
<g transform="translate(523.0,346.0)">
	<line fill="none" stroke="#747474" stroke-width="2" stroke-dasharray="23,0" x1="-2" y1="0" x2="-438" y2="0"/>
	<g transform="translate(0.0,0.0) rotate(180.0)">
		<polygon fill="#747474" stroke="#747474" stroke-width="2" points="3,0 9,-3 9,3 		"/>
	</g>
	<g transform="translate(-229.0,0.0)">
	</g>
</g>
<g transform="translate(75.0,155.0) rotate(0 75.0 11.0)">
	<g transform="translate(0.0,16.0)">
		<text transform="matrix(1 0 0 1 50.3264 -2)" font-family="'HelveticaNeueLTCom-Lt'" font-size="12">: render()</text>
	</g>
</g>
<g transform="translate(88.0,279.0) rotate(0 75.0 11.0)">
	<g transform="translate(0.0,16.0)">
		<text transform="matrix(1 0 0 1 52.6604 -2)" font-family="'HelveticaNeueLTCom-Lt'" font-size="12">this.html</text>
	</g>
</g>
<g transform="translate(226.0,190.0) rotate(0 75.0 11.0)">
	<g transform="translate(0.0,16.0)">
		<text transform="matrix(1 0 0 1 50.3259 -2)" font-family="'HelveticaNeueLTCom-Lt'" font-size="12">: render()</text>
	</g>
</g>
<g transform="translate(20.0,41.0)">
	<line fill="none" stroke="#333333" stroke-dasharray="23,0" x1="0" y1="0" x2="625" y2="0"/>
	<g transform="translate(302.5,0.0)">
	</g>
</g>
<g transform="translate(22.5,11.5) rotate(0 312.5 12.5)">
	<g transform="translate(0.0,20.5)">
		<text transform="matrix(1 0 0 1 2.0002 -3)" font-family="'HelveticaNeueLTCom-Lt'" font-size="18">Sequence Diagram</text>
	</g>
</g>
<g transform="translate(24.0,69.5) rotate(0 60.0 237.5)">
	<g transform="translate(0.0,0.0)">
		
			<linearGradient id="SVGID_2_" gradientUnits="userSpaceOnUse" x1="369.9509" y1="277.3574" x2="369.9509" y2="276.1074" gradientTransform="matrix(119.5219 0 0 -20 -44157.4688 5542.1563)">
			<stop  offset="0" style="stop-color:#FFFFFF"/>
			<stop  offset="1" style="stop-color:#999999"/>
		</linearGradient>
		<rect x="0" fill="url(#SVGID_2_)" stroke="#999999" stroke-width="2" width="119.521" height="20"/>
	</g>
	<g transform="translate(0.0,20.0)">
		<line fill="none" stroke="#999999" stroke-width="2" x1="59.761" y1="0" x2="59.761" y2="455"/>
	</g>
	<g transform="translate(0.0,15.0)">
		
			<text transform="matrix(1 0 0 1 38.9944 -2)" font-family="'HelveticaNeueLTCom-Lt'" font-size="12" text-decoration=" underline">M.Page</text>
	</g>
</g>
<g transform="translate(325.0,69.5) rotate(0 60.0 237.5)">
	<g transform="translate(0.0,0.0)">
		
			<linearGradient id="SVGID_3_" gradientUnits="userSpaceOnUse" x1="68.9509" y1="277.3574" x2="68.9509" y2="276.1074" gradientTransform="matrix(119.5219 0 0 -20 -8181.375 5542.1563)">
			<stop  offset="0" style="stop-color:#FFFFFF"/>
			<stop  offset="1" style="stop-color:#999999"/>
		</linearGradient>
		<rect x="0" fill="url(#SVGID_3_)" stroke="#999999" stroke-width="2" width="119.521" height="20"/>
	</g>
	<g transform="translate(0.0,20.0)">
		<line fill="none" stroke="#999999" stroke-width="2" x1="59.761" y1="0" x2="59.761" y2="455"/>
	</g>
	<g transform="translate(0.0,15.0)">
		
			<text transform="matrix(1 0 0 1 24.0994 -2)" font-family="'HelveticaNeueLTCom-Lt'" font-size="12" text-decoration=" underline">M.LabelView</text>
	</g>
</g>
<g transform="translate(476.0,69.5) rotate(0 60.0 237.5)">
	<g transform="translate(0.0,0.0)">
		
			<linearGradient id="SVGID_4_" gradientUnits="userSpaceOnUse" x1="-82.0491" y1="277.3574" x2="-82.0491" y2="276.1074" gradientTransform="matrix(119.5219 0 0 -20 9866.4336 5542.1563)">
			<stop  offset="0" style="stop-color:#FFFFFF"/>
			<stop  offset="1" style="stop-color:#999999"/>
		</linearGradient>
		<rect x="0" fill="url(#SVGID_4_)" stroke="#999999" stroke-width="2" width="119.521" height="20"/>
	</g>
	<g transform="translate(0.0,20.0)">
		<line fill="none" stroke="#999999" stroke-width="2" x1="59.761" y1="0" x2="59.761" y2="455"/>
	</g>
	<g transform="translate(0.0,15.0)">
		
			<text transform="matrix(1 0 0 1 23.0979 -2)" font-family="'HelveticaNeueLTCom-Lt'" font-size="12" text-decoration=" underline">M.ScrollView</text>
	</g>
</g>
<g transform="translate(225.625,181.5) rotate(0 9.375 61.25)">
	<rect x="0" fill="#FFFFFF" stroke="#999999" stroke-width="2" width="18.382" height="122.012"/>
</g>
<g transform="translate(373.625,215.75) rotate(0 9.375 26.875)">
	<rect x="0" fill="#FFFFFF" stroke="#999999" stroke-width="2" width="18.382" height="53.536"/>
</g>
<g transform="translate(230.0,321.0) rotate(0 75.0 11.0)">
	<g transform="translate(0.0,16.0)">
		<text transform="matrix(1 0 0 1 50.3259 -2)" font-family="'HelveticaNeueLTCom-Lt'" font-size="12">: render()</text>
	</g>
</g>
<g transform="translate(627.0,70.5) rotate(0 60.0 237.5)">
	<g transform="translate(0.0,0.0)">
		
			<linearGradient id="SVGID_5_" gradientUnits="userSpaceOnUse" x1="-233.0491" y1="276.1006" x2="-233.0491" y2="274.8506" gradientTransform="matrix(119.5219 0 0 -19 27914.2422 5241.1563)">
			<stop  offset="0" style="stop-color:#FFFFFF"/>
			<stop  offset="1" style="stop-color:#999999"/>
		</linearGradient>
		<rect x="0" fill="url(#SVGID_5_)" stroke="#999999" stroke-width="2" width="119.521" height="19"/>
	</g>
	<g transform="translate(0.0,19.0)">
		<line fill="none" stroke="#999999" stroke-width="2" x1="59.761" y1="0" x2="59.761" y2="456"/>
	</g>
	<g transform="translate(0.0,14.5)">
		
			<text transform="matrix(1 0 0 1 22.4299 -2)" font-family="'HelveticaNeueLTCom-Lt'" font-size="12" text-decoration=" underline">M.ImageView</text>
	</g>
</g>
<g transform="translate(240.0,241.0) rotate(0 75.0 11.0)">
	<g transform="translate(0.0,16.0)">
		<text transform="matrix(1 0 0 1 52.6609 -2)" font-family="'HelveticaNeueLTCom-Lt'" font-size="12">this.html</text>
	</g>
</g>
<g transform="translate(542.0,380.0)">
	<line fill="none" stroke="#747474" stroke-width="2" stroke-dasharray="23,0" x1="0" y1="0" x2="129" y2="0"/>
	<g transform="translate(131.0,0.0) rotate(180.0)">
		<polygon fill="#747474" stroke="#747474" stroke-width="2" points="3,0 9,-3 9,3 		"/>
	</g>
	<g transform="translate(55.5,0.0)">
	</g>
</g>
<g transform="translate(531.0,358.0) rotate(0 75.0 11.0)">
	<g transform="translate(0.0,16.0)">
		<text transform="matrix(1 0 0 1 50.3264 -2)" font-family="'HelveticaNeueLTCom-Lt'" font-size="12">: render()</text>
	</g>
</g>
<g transform="translate(676.625,378.375) rotate(0 9.375 33.4375)">
	<rect x="0" fill="#FFFFFF" stroke="#999999" stroke-width="2" width="18.382" height="66.608"/>
</g>
<g transform="translate(549.0,441.0)">
	<line fill="none" stroke="#747474" stroke-width="2" stroke-dasharray="6,12" x1="2" y1="0" x2="131" y2="0"/>
	<g transform="translate(0.0,0.0) rotate(0.0)">
		<polygon fill="#747474" stroke="#747474" stroke-width="2" points="3,0 9,-3 9,3 		"/>
	</g>
	<g transform="translate(55.5,0.0)">
	</g>
</g>
<g transform="translate(539.0,416.0) rotate(0 75.0 11.0)">
	<g transform="translate(0.0,16.0)">
		<text transform="matrix(1 0 0 1 52.6604 -2)" font-family="'HelveticaNeueLTCom-Lt'" font-size="12">this.html</text>
	</g>
</g>
<g transform="translate(539.0,474.0)">
	<line fill="none" stroke="#747474" stroke-width="2" stroke-dasharray="6,12" x1="0" y1="0" x2="-441" y2="0"/>
	<g transform="translate(-443.0,0.0) rotate(360.0)">
		<polygon fill="#747474" stroke="#747474" stroke-width="2" points="3,0 9,-3 9,3 		"/>
	</g>
	<g transform="translate(-231.5,0.0)">
	</g>
</g>
<g transform="translate(234.0,449.0) rotate(0 75.0 11.0)">
	<g transform="translate(0.0,16.0)">
		<text transform="matrix(1 0 0 1 52.6609 -2)" font-family="'HelveticaNeueLTCom-Lt'" font-size="12">this.html</text>
	</g>
</g>
<g transform="translate(74.625,154.0) rotate(0 9.375 177.5)">
	<rect x="0" fill="#FFFFFF" stroke="#999999" stroke-width="2" width="18.382" height="353.586"/>
</g>
<g transform="translate(526.625,346.25) rotate(0 9.375 64.625)">
	<rect x="0" fill="#FFFFFF" stroke="#999999" stroke-width="2" width="18.382" height="128.735"/>
</g>
</svg>
