<?xml version="1.0" encoding="utf-8"?>
<!-- Generator: Adobe Illustrator 14.0.0, SVG Export Plug-In . SVG Version: 6.00 Build 43363)  -->
<!DOCTYPE svg PUBLIC "-//W3C//DTD SVG 1.1//EN" "http://www.w3.org/Graphics/SVG/1.1/DTD/svg11.dtd">
<svg version="1.1" id="Layer_1" xmlns:gliffy="http://www.gliffy.com"
	 xmlns="http://www.w3.org/2000/svg" xmlns:xlink="http://www.w3.org/1999/xlink" x="0px" y="0px" width="1080px" height="575px"
	 viewBox="0 0 1080 575" enable-background="new 0 0 1080 575" xml:space="preserve">
<rect x="0" fill="#FFFFFF" width="992.5" height="493"/>
<g transform="translate(397.5,448.0)">
	<line fill="none" stroke="#747474" stroke-width="2" stroke-dasharray="6,12" x1="0" y1="0" x2="-127" y2="0"/>
	<g transform="translate(-129.0,0.0) rotate(360.0)">
		<polygon fill="#747474" stroke="#747474" stroke-width="2" points="3,0 9,-3 9,3 		"/>
	</g>
	<g transform="translate(-74.5,0.0)">
	</g>
</g>
<g transform="translate(556.5,392.0)">
	<line fill="none" stroke="#747474" stroke-width="2" stroke-dasharray="6,12" x1="0" y1="0" x2="-127" y2="0"/>
	<g transform="translate(-129.0,0.0) rotate(360.0)">
		<polygon fill="#747474" stroke="#747474" stroke-width="2" points="3,0 9,-3 9,3 		"/>
	</g>
	<g transform="translate(-74.5,0.0)">
	</g>
</g>
<g transform="translate(698.5,373.0)">
	<line fill="none" stroke="#747474" stroke-width="2" stroke-dasharray="6,12" x1="0" y1="0" x2="-127" y2="0"/>
	<g transform="translate(-129.0,0.0) rotate(360.0)">
		<polygon fill="#747474" stroke="#747474" stroke-width="2" points="3,0 9,-3 9,3 		"/>
	</g>
	<g transform="translate(-74.5,0.0)">
	</g>
</g>
<g transform="translate(843.5,286.0)">
	<line fill="none" stroke="#747474" stroke-width="2" stroke-dasharray="23,0" x1="-2" y1="0" x2="-133" y2="0"/>
	<g transform="translate(0.0,0.0) rotate(180.0)">
		<polygon fill="#747474" stroke="#747474" stroke-width="2" points="3,0 9,-3 9,3 		"/>
	</g>
	<g transform="translate(-76.5,0.0)">
	</g>
</g>
<g transform="translate(346.0,75.0) rotate(0 60.0 200.0)">
	<g transform="translate(0.0,0.0)">
		
			<linearGradient id="SVGID_1_" gradientUnits="userSpaceOnUse" x1="490.9153" y1="217.7207" x2="490.9153" y2="216.4707" gradientTransform="matrix(119.5219 0 0 -17 -58615.4766 3696.9688)">
			<stop  offset="0" style="stop-color:#FFFFFF"/>
			<stop  offset="1" style="stop-color:#999999"/>
		</linearGradient>
		<rect x="0" fill="url(#SVGID_1_)" stroke="#999999" stroke-width="2" width="119.521" height="17"/>
	</g>
	<g transform="translate(0.0,17.0)">
		<line fill="none" stroke="#999999" stroke-width="2" x1="59.761" y1="0" x2="59.761" y2="383"/>
	</g>
	<g transform="translate(0.0,13.5)">
		
			<text transform="matrix(1 0 0 1 17.2048 -2)" font-family="'HelveticaNeueLTCom-Lt'" font-size="12" text-decoration=" underline">TextFieldView1</text>
	</g>
</g>
<g transform="translate(250.5,175.0)">
	<line fill="none" stroke="#747474" stroke-width="2" stroke-dasharray="23,0" x1="0" y1="0" x2="138" y2="0"/>
	<g transform="translate(140.0,0.0) rotate(180.0)">
		<polygon fill="#747474" stroke="#747474" stroke-width="2" points="3,0 9,-3 9,3 		"/>
	</g>
	<g transform="translate(60.0,0.0)">
	</g>
</g>
<g transform="translate(249.5,151.0) rotate(0 75.0 11.0)">
	<g transform="translate(0.0,16.0)">
		<text transform="matrix(1 0 0 1 20.1033 -2)" font-family="'HelveticaNeueLTCom-Lt'" font-size="12">setValueFromDOM()</text>
	</g>
</g>
<g transform="translate(20.0,41.0)">
	<line fill="none" stroke="#333333" stroke-dasharray="23,0" x1="0" y1="0" x2="625" y2="0"/>
	<g transform="translate(302.5,0.0)">
	</g>
</g>
<g transform="translate(22.5,11.5) rotate(0 312.5 12.5)">
	<g transform="translate(0.0,20.5)">
		<text transform="matrix(1 0 0 1 2.0002 -3)" font-family="'HelveticaNeueLTCom-Lt'" font-size="18">Sequence Diagram</text>
	</g>
</g>
<g transform="translate(194.0,75.0) rotate(0 60.0 200.0)">
	<g transform="translate(0.0,0.0)">
		
			<linearGradient id="SVGID_2_" gradientUnits="userSpaceOnUse" x1="946.9153" y1="217.7207" x2="946.9153" y2="216.4707" gradientTransform="matrix(119.5219 0 0 -17 -113117.4922 3696.9688)">
			<stop  offset="0" style="stop-color:#FFFFFF"/>
			<stop  offset="1" style="stop-color:#999999"/>
		</linearGradient>
		<rect x="0" fill="url(#SVGID_2_)" stroke="#999999" stroke-width="2" width="119.521" height="17"/>
	</g>
	<g transform="translate(0.0,17.0)">
		<line fill="none" stroke="#999999" stroke-width="2" x1="59.761" y1="0" x2="59.761" y2="383"/>
	</g>
	<g transform="translate(0.0,13.5)">
		
			<text transform="matrix(1 0 0 1 12.6506 -2)" font-family="'HelveticaNeueLTCom-Lt'" font-size="12" text-decoration=" underline">EventDispatcher</text>
	</g>
</g>
<g transform="translate(797.0,75.0) rotate(0 60.0 200.0)">
	<g transform="translate(0.0,0.0)">
		
			<linearGradient id="SVGID_3_" gradientUnits="userSpaceOnUse" x1="-862.0837" y1="217.7207" x2="-862.0837" y2="216.4707" gradientTransform="matrix(119.5219 0 0 -17 103097.6484 3696.9688)">
			<stop  offset="0" style="stop-color:#FFFFFF"/>
			<stop  offset="1" style="stop-color:#999999"/>
		</linearGradient>
		<rect x="0" fill="url(#SVGID_3_)" stroke="#999999" stroke-width="2" width="119.521" height="17"/>
	</g>
	<g transform="translate(0.0,17.0)">
		<line fill="none" stroke="#999999" stroke-width="2" x1="59.761" y1="0" x2="59.761" y2="383"/>
	</g>
	<g transform="translate(0.0,13.5)">
		
			<text transform="matrix(1 0 0 1 17.2053 -2)" font-family="'HelveticaNeueLTCom-Lt'" font-size="12" text-decoration=" underline">TextFieldView2</text>
	</g>
</g>
<g transform="translate(495.0,75.0) rotate(0 60.0 200.0)">
	<g transform="translate(0.0,0.0)">
		
			<linearGradient id="SVGID_4_" gradientUnits="userSpaceOnUse" x1="43.9167" y1="217.7207" x2="43.9167" y2="216.4707" gradientTransform="matrix(119.5219 0 0 -17 -5189.2129 3696.9688)">
			<stop  offset="0" style="stop-color:#FFFFFF"/>
			<stop  offset="1" style="stop-color:#999999"/>
		</linearGradient>
		<rect x="0" fill="url(#SVGID_4_)" stroke="#999999" stroke-width="2" width="119.521" height="17"/>
	</g>
	<g transform="translate(0.0,17.0)">
		<line fill="none" stroke="#999999" stroke-width="2" x1="59.761" y1="0" x2="59.761" y2="383"/>
	</g>
	<g transform="translate(0.0,13.5)">
		
			<text transform="matrix(1 0 0 1 31.3328 -2)" font-family="'HelveticaNeueLTCom-Lt'" font-size="12" text-decoration=" underline">Controller</text>
	</g>
</g>
<g transform="translate(395.125,167.03125) rotate(0 9.375 145.96875)">
	<rect x="0" fill="#FFFFFF" stroke="#999999" stroke-width="2" width="18.382" height="290.774"/>
</g>
<g transform="translate(847.125,275.90625) rotate(0 9.375 42.640625)">
	<rect x="0" fill="#FFFFFF" stroke="#999999" stroke-width="2" width="18.382" height="84.941"/>
</g>
<g transform="translate(545.125,242.75) rotate(0 9.375 80.375)">
	<rect x="0" fill="#FFFFFF" stroke="#999999" stroke-width="2" width="18.382" height="160.109"/>
</g>
<g transform="translate(99.5,121.0)">
	<line fill="none" stroke="#747474" stroke-width="2" stroke-dasharray="23,0" x1="0" y1="0" x2="138" y2="0"/>
	<g transform="translate(140.0,0.0) rotate(180.0)">
		<polygon fill="#747474" stroke="#747474" stroke-width="2" points="3,0 9,-3 9,3 		"/>
	</g>
	<g transform="translate(60.0,0.0)">
	</g>
</g>
<g transform="translate(90.5,98.0) rotate(0 75.0 11.0)">
	<g transform="translate(0.0,16.0)">
		<text transform="matrix(1 0 0 1 18.301 -2)" font-family="'HelveticaNeueLTCom-Lt'" font-size="12">eventDidHappen(evt)</text>
	</g>
</g>
<g transform="translate(404.125,185.75) rotate(0 9.375 118.875)">
	<rect x="0" fill="#FFFFFF" stroke="#999999" stroke-width="2" width="18.382" height="236.803"/>
</g>
<g transform="translate(430.0,194.75) rotate(0 22.5 11.25)">
	<polygon stroke="#000000" points="0,19.396 6.275,16.487 6.275,22.306 	"/>
	<path stroke="#000000" d="M0,0c23.902,0,35.854,3.233,35.854,9.698c0,6.465-11.951,9.698-35.854,9.698
		c23.902,0,35.854-3.233,35.854-9.698C35.856,3.233,23.905,0,0,0"/>
	<polygon stroke="#000000" points="0,19.396 6.275,16.487 6.275,22.306 	"/>
</g>
<g transform="translate(450.5,185.0) rotate(0 43.0 11.0)">
	<g transform="translate(0.0,8.0)">
		<text transform="matrix(1 0 0 1 5.0779 -2)" font-family="'HelveticaNeueLTCom-Lt'" font-size="12">delegateValue</text>
		<text transform="matrix(1 0 0 1 23.988 12.7998)" font-family="'HelveticaNeueLTCom-Lt'" font-size="12">Update()</text>
	</g>
</g>
<g transform="translate(244.125,111.75) rotate(0 9.375 179.875)">
	<rect x="0" fill="#FFFFFF" stroke="#999999" stroke-width="2" width="18.382" height="358.316"/>
</g>
<g transform="translate(408.5,232.0) rotate(0 75.0 11.0)">
	<g transform="translate(0.0,16.0)">
		<text transform="matrix(1 0 0 1 19.0164 -2)" font-family="'HelveticaNeueLTCom-Lt'" font-size="12">set(</text>
		<text transform="matrix(1 0 0 1 39.0203 -2)" font-family="'HelveticaNeueLTCom-Lt'" font-size="12">&apos;</text>
		<text transform="matrix(1 0 0 1 41.3113 -2)" font-family="'HelveticaNeueLTCom-Lt'" font-size="12">input</text>
		<text transform="matrix(1 0 0 1 67.3328 -2)" font-family="'HelveticaNeueLTCom-Lt'" font-size="12">&apos;</text>
		<text transform="matrix(1 0 0 1 69.6238 -2)" font-family="'HelveticaNeueLTCom-Lt'" font-size="12">, this.value)</text>
	</g>
</g>
<g transform="translate(422.5,257.0)">
	<line fill="none" stroke="#747474" stroke-width="2" stroke-dasharray="23,0" x1="0" y1="0" x2="117" y2="0"/>
	<g transform="translate(119.0,0.0) rotate(180.0)">
		<polygon fill="#747474" stroke="#747474" stroke-width="2" points="3,0 9,-3 9,3 		"/>
	</g>
	<g transform="translate(49.5,0.0)">
	</g>
</g>
<g transform="translate(646.0,75.0) rotate(0 60.0 200.0)">
	<g transform="translate(0.0,0.0)">
		
			<linearGradient id="SVGID_5_" gradientUnits="userSpaceOnUse" x1="-409.0837" y1="217.7207" x2="-409.0837" y2="216.4707" gradientTransform="matrix(119.5219 0 0 -17 48954.2148 3696.9688)">
			<stop  offset="0" style="stop-color:#FFFFFF"/>
			<stop  offset="1" style="stop-color:#999999"/>
		</linearGradient>
		<rect x="0" fill="url(#SVGID_5_)" stroke="#999999" stroke-width="2" width="119.521" height="17"/>
	</g>
	<g transform="translate(0.0,17.0)">
		<line fill="none" stroke="#999999" stroke-width="2" x1="59.761" y1="0" x2="59.761" y2="383"/>
	</g>
	<g transform="translate(0.0,13.5)">
		
			<text transform="matrix(1 0 0 1 27.3167 -2)" font-family="'HelveticaNeueLTCom-Lt'" font-size="12" text-decoration=" underline">Observable</text>
	</g>
</g>
<g transform="translate(565.5,271.0)">
	<line fill="none" stroke="#747474" stroke-width="2" stroke-dasharray="23,0" x1="0" y1="0" x2="123" y2="0"/>
	<g transform="translate(125.0,0.0) rotate(180.0)">
		<polygon fill="#747474" stroke="#747474" stroke-width="2" points="3,0 9,-3 9,3 		"/>
	</g>
	<g transform="translate(52.5,0.0)">
	</g>
</g>
<g transform="translate(552.5,247.0) rotate(0 75.0 11.0)">
	<g transform="translate(0.0,16.0)">
		<text transform="matrix(1 0 0 1 28.9885 -2)" font-family="'HelveticaNeueLTCom-Lt'" font-size="12">notifyObservers()</text>
	</g>
</g>
<g transform="translate(694.125,257.99609375) rotate(0 9.375 62.005859375)">
	<rect x="0" fill="#FFFFFF" stroke="#999999" stroke-width="2" width="18.382" height="123.518"/>
</g>
<g transform="translate(702.5,262.0) rotate(0 75.0 11.0)">
	<g transform="translate(0.0,16.0)">
		<text transform="matrix(1 0 0 1 21.301 -2)" font-family="'HelveticaNeueLTCom-Lt'" font-size="12">contentDidChange()</text>
	</g>
</g>
<g transform="translate(857.125,292.1796875) rotate(0 9.375 25.8203125)">
	<rect x="0" fill="#FFFFFF" stroke="#999999" stroke-width="2" width="18.382" height="51.436"/>
</g>
<g transform="translate(885.0,307.75) rotate(0 22.5 11.25)">
	<polygon stroke="#000000" points="0,19.396 6.275,16.486 6.275,22.307 	"/>
	<path stroke="#000000" d="M0,0c23.902,0,35.854,3.232,35.854,9.698S23.905,19.396,0,19.396c23.902,0,35.854-3.232,35.854-9.698
		S23.905,0,0,0"/>
	<polygon stroke="#000000" points="0,19.396 6.275,16.486 6.275,22.307 	"/>
</g>
<g transform="translate(890.375,273.0) rotate(0 45.125 25.0)">
	<g transform="translate(0.0,22.0)">
		<text transform="matrix(1 0 0 1 6.4358 -2)" font-family="'HelveticaNeueLTCom-Lt'" font-size="12">renderUpdate()</text>
	</g>
</g>
<g transform="translate(846.5,351.0)">
	<line fill="none" stroke="#747474" stroke-width="2" stroke-dasharray="6,12" x1="0" y1="0" x2="-127" y2="0"/>
	<g transform="translate(-129.0,0.0) rotate(360.0)">
		<polygon fill="#747474" stroke="#747474" stroke-width="2" points="3,0 9,-3 9,3 		"/>
	</g>
	<g transform="translate(-74.5,0.0)">
	</g>
</g>
<g transform="translate(43.25,70.0) rotate(0 31.25 50.0)">
	<circle fill="#FFFFFF" stroke="#000000" cx="31.043" cy="9.96" r="10.348"/>
	<line fill="none" stroke="#000000" x1="31.043" y1="19.92" x2="31.043" y2="59.761"/>
	<line fill="none" stroke="#000000" x1="31.043" y1="59.761" x2="20.696" y2="99.602"/>
	<line fill="none" stroke="#000000" x1="31.043" y1="59.761" x2="41.391" y2="99.602"/>
	<line fill="none" stroke="#000000" x1="31.043" y1="59.761" x2="41.391" y2="99.602"/>
	<line fill="none" stroke="#000000" x1="0" y1="29.88" x2="62.086" y2="29.88"/>
</g>
<g transform="translate(21.0,177.125) rotate(0 63.5 48.875)">
	<polygon fill="#FFFFFF" stroke="#000000" points="0,0 108.784,0 126.494,22.657 126.494,97.103 0,97.103 	"/>
	<line fill="none" stroke="#000000" x1="108.784" y1="0" x2="108.784" y2="22.657"/>
	<line fill="none" stroke="#000000" x1="108.784" y1="22.657" x2="126.494" y2="22.657"/>
	<g transform="translate(0.0,38.875)">
		<text transform="matrix(1 0 0 1 8.4749 -2)" font-family="'HelveticaNeueLTCom-Lt'" font-size="12">typing in the first text</text>
		<text transform="matrix(1 0 0 1 9.5139 12.7998)" font-family="'HelveticaNeueLTCom-Lt'" font-size="12">field fires an &apos;</text>
		<text transform="matrix(1 0 0 1 79.8381 12.7998)" font-family="'HelveticaNeueLTCom-Lt'" font-size="12">k</text>
		<text transform="matrix(1 0 0 1 85.8381 12.7998)" font-family="'HelveticaNeueLTCom-Lt'" font-size="12">eyup&apos;</text>
		<text transform="matrix(1 0 0 1 114.1506 12.7998)" font-family="'HelveticaNeueLTCom-Lt'" font-size="12"> </text>
		<text transform="matrix(1 0 0 1 48.8225 27.5996)" font-family="'HelveticaNeueLTCom-Lt'" font-size="12">e</text>
		<text transform="matrix(1 0 0 1 55.4963 27.5996)" font-family="'HelveticaNeueLTCom-Lt'" font-size="12">vent</text>
	</g>
</g>
</svg>
