<?xml version="1.0" encoding="utf-8"?>
<!-- Generator: Adobe Illustrator 14.0.0, SVG Export Plug-In . SVG Version: 6.00 Build 43363)  -->
<!DOCTYPE svg PUBLIC "-//W3C//DTD SVG 1.1//EN" "http://www.w3.org/Graphics/SVG/1.1/DTD/svg11.dtd">
<svg version="1.1" id="Ebene_1" xmlns:gliffy="http://www.gliffy.com"
	 xmlns="http://www.w3.org/2000/svg" xmlns:xlink="http://www.w3.org/1999/xlink" x="0px" y="0px" width="1468px" height="969px"
	 viewBox="0 0 1468 969" enable-background="new 0 0 1468 969" xml:space="preserve">
<rect fill="#FFFFFF" width="1339.5" height="752"/>
<g transform="translate(154.24185945136344,69.49999999999994) rotate(0 60.095470836064514 329.1600081819589)">
	<g transform="translate(0.0,0.0)">
		
			<linearGradient id="SVGID_1_" gradientUnits="userSpaceOnUse" x1="354.7879" y1="-20.6318" x2="354.7879" y2="-19.3818" gradientTransform="matrix(119.7121 0 0 18.35 -42412.4648 374)">
			<stop  offset="0" style="stop-color:#FFFFFF"/>
			<stop  offset="1" style="stop-color:#999999"/>
		</linearGradient>
		<rect x="0" fill="url(#SVGID_1_)" stroke="#999999" stroke-width="2" width="119.712" height="18.35"/>
	</g>
	<g transform="translate(0.0,18.35)">
		<line fill="none" stroke="#999999" stroke-width="2" x1="59.856" y1="0" x2="59.856" y2="639.97"/>
	</g>
	<g transform="translate(0.0,14.175)">
		
			<text transform="matrix(1 0 0 1 12.7459 -2.0002)" font-family="'HelveticaNeue-Light'" font-size="12" text-decoration=" underline">EventDispatcher</text>
	</g>
</g>
<g transform="translate(61.0,125.0)">
	<line fill="none" stroke="#747474" stroke-width="2" stroke-dasharray="23,0" x1="0" y1="0" x2="138" y2="0"/>
	<g transform="translate(140.0,0.0) rotate(180.0)">
		<polygon fill="#747474" stroke="#747474" stroke-width="2" points="3,0 9,-3 9,3 		"/>
	</g>
	<g transform="translate(60.0,0.0)">
	</g>
</g>
<g transform="translate(61.0,102.0) rotate(0 75.0 11.0)">
	<g transform="translate(0.0,16.0)">
		<text transform="matrix(1 0 0 1 18.3018 -2)" font-family="'HelveticaNeue-Light'" font-size="12">eventDidHappen(evt)</text>
	</g>
</g>
<g transform="translate(20.0,41.0)">
	<line fill="none" stroke="#333333" stroke-dasharray="23,0" x1="0" y1="0" x2="861" y2="0"/>
	<g transform="translate(420.5,0.0)">
	</g>
</g>
<g transform="translate(17.75,5.5) rotate(0 416.25 22.5)">
	<g transform="translate(0.0,30.5)">
		<text transform="matrix(1 0 0 1 2 -3)" font-family="'HelveticaNeue-Light'" font-size="18">Sequence Diagram of a complete workflow with rendering update (here: </text>
		<text transform="matrix(1 0 0 1 579.3096 -3)" font-family="'ArialMT'" font-size="18">&quot;</text>
		<text transform="matrix(1 0 0 1 585.6992 -3)" font-family="'HelveticaNeue-Light'" font-size="18">Add Todo</text>
		<text transform="matrix(1 0 0 1 661.4346 -3)" font-family="'ArialMT'" font-size="18">&quot;</text>
		<text transform="matrix(1 0 0 1 667.8242 -3)" font-family="'HelveticaNeue-Light'" font-size="18">)</text>
	</g>
</g>
<g transform="translate(563.8926523172033,69.49999999999994) rotate(0 60.095470836064514 329.1600081819589)">
	<g transform="translate(0.0,0.0)">
		
			<linearGradient id="SVGID_2_" gradientUnits="userSpaceOnUse" x1="-464.5142" y1="-20.6318" x2="-464.5142" y2="-19.3818" gradientTransform="matrix(119.7121 0 0 18.35 55667.8477 374)">
			<stop  offset="0" style="stop-color:#FFFFFF"/>
			<stop  offset="1" style="stop-color:#999999"/>
		</linearGradient>
		<rect x="0" fill="url(#SVGID_2_)" stroke="#999999" stroke-width="2" width="119.712" height="18.35"/>
	</g>
	<g transform="translate(0.0,18.35)">
		<line fill="none" stroke="#999999" stroke-width="2" x1="59.856" y1="0" x2="59.856" y2="639.97"/>
	</g>
	<g transform="translate(0.0,14.175)">
		
			<text transform="matrix(1 0 0 1 13.8769 -2.0002)" font-family="'HelveticaNeue-Light'" font-size="12" text-decoration=" underline">TodosController</text>
	</g>
</g>
<g transform="translate(431.68261647786136,69.49999999999994) rotate(0 60.095470836064514 329.1600081819589)">
	<g transform="translate(0.0,0.0)">
		
			<linearGradient id="SVGID_3_" gradientUnits="userSpaceOnUse" x1="-200.0942" y1="-20.6318" x2="-200.0942" y2="-19.3818" gradientTransform="matrix(119.7121 0 0 18.35 24013.6094 374)">
			<stop  offset="0" style="stop-color:#FFFFFF"/>
			<stop  offset="1" style="stop-color:#999999"/>
		</linearGradient>
		<rect fill="url(#SVGID_3_)" stroke="#999999" stroke-width="2" width="119.712" height="18.35"/>
	</g>
	<g transform="translate(0.0,18.35)">
		<line fill="none" stroke="#999999" stroke-width="2" x1="59.856" y1="0" x2="59.856" y2="639.97"/>
	</g>
	<g transform="translate(0.0,14.175)">
		
			<text transform="matrix(1 0 0 1 21.8574 -2.0002)" font-family="'HelveticaNeue-Light'" font-size="12" text-decoration=" underline">ViewManager</text>
	</g>
</g>
<g transform="translate(234.5,135.75) rotate(0 22.5 11.25)">
	<polygon fill="#333333" stroke="#333333" points="0,19.396 6.275,16.487 6.275,22.306 	"/>
	<path fill="#333333" stroke="#333333" d="M0,0c23.904,0,35.856,3.233,35.856,9.698c0,6.465-11.952,9.698-35.856,9.698
		c23.904,0,35.856-3.233,35.856-9.698C35.856,3.233,23.904,0,0,0"/>
	<polygon fill="#333333" stroke="#333333" points="0,19.396 6.275,16.487 6.275,22.306 	"/>
	<g transform="translate(40.0,19.25)">
		<text transform="matrix(1 0 0 1 8 -2)" font-family="'HelveticaNeue-Light'" font-size="12">delegateEvent(type, id, keyCode)</text>
	</g>
</g>
<g transform="translate(204.63006975989617,113.61293576665093) rotate(0 9.369930240103828 276.5805963500236)">
	<rect x="0" y="0" fill="#FFFFFF" stroke="#999999" stroke-width="2" width="18.373" height="550.958"/>
</g>
<g transform="translate(615.6300697598962,243.72587153330164) rotate(0 9.369930240103828 203.27412846669836)">
	<rect x="0" y="0" fill="#FFFFFF" stroke="#999999" stroke-width="2" width="18.373" height="404.928"/>
</g>
<g transform="translate(226.0,200.0)">
	<line fill="none" stroke="#747474" stroke-width="2" stroke-dasharray="23,0" x1="0" y1="0" x2="252" y2="0"/>
	<g transform="translate(254.0,0.0) rotate(180.0)">
		<polygon fill="#747474" stroke="#747474" stroke-width="2" points="3,0 9,-3 9,3 		"/>
	</g>
	<g transform="translate(117.0,0.0)">
	</g>
</g>
<g transform="translate(280.0,181.0) rotate(0 75.0 11.0)">
	<g transform="translate(0.0,16.0)">
		<text transform="matrix(1 0 0 1 33.0908 -2)" font-family="'HelveticaNeue-Light'" font-size="12">getViewById(id)</text>
	</g>
</g>
<g transform="translate(484.0,223.0)">
	<line fill="none" stroke="#747474" stroke-width="2" stroke-dasharray="3,6" x1="0" y1="0" x2="-242" y2="0"/>
	<g transform="translate(-244.0,0.0) rotate(360.0)">
		<polygon fill="#747474" stroke="#747474" stroke-width="2" points="3,0 9,-3 9,3 		"/>
	</g>
	<g transform="translate(-132.0,0.0)">
	</g>
</g>
<g transform="translate(276.0,205.0) rotate(0 75.0 11.0)">
	<g transform="translate(0.0,16.0)">
		<text transform="matrix(1 0 0 1 62.1035 -2)" font-family="'HelveticaNeue-Light'" font-size="12">View</text>
	</g>
</g>
<g transform="translate(227.0,257.0)">
	<line fill="none" stroke="#747474" stroke-width="2" stroke-dasharray="23,0" x1="0" y1="0" x2="383" y2="0"/>
	<g transform="translate(385.0,0.0) rotate(180.0)">
		<polygon fill="#747474" stroke="#747474" stroke-width="2" points="3,0 9,-3 9,3 		"/>
	</g>
	<g transform="translate(182.5,0.0)">
	</g>
</g>
<g transform="translate(483.6300697598962,187.0) rotate(0 9.369930240103828 22.466537550621922)">
	<rect x="0" fill="#FFFFFF" stroke="#999999" stroke-width="2" width="18.373" height="44.754"/>
</g>
<g transform="translate(307.0,257.0) rotate(0 75.0 11.0)">
	<g transform="translate(0.0,16.0)">
		<text transform="matrix(1 0 0 1 47.9824 -2)" font-family="'HelveticaNeue-Light'" font-size="12">addTodo()</text>
	</g>
</g>
<g transform="translate(735.1647441999875,69.49999999999994) rotate(0 60.095470836064514 329.1600081819589)">
	<g transform="translate(0.0,0.0)">
		
			<linearGradient id="SVGID_4_" gradientUnits="userSpaceOnUse" x1="-807.0583" y1="-20.6318" x2="-807.0583" y2="-19.3818" gradientTransform="matrix(119.7121 0 0 18.35 96674.5469 374)">
			<stop  offset="0" style="stop-color:#FFFFFF"/>
			<stop  offset="1" style="stop-color:#999999"/>
		</linearGradient>
		<rect x="0" fill="url(#SVGID_4_)" stroke="#999999" stroke-width="2" width="119.712" height="18.35"/>
	</g>
	<g transform="translate(0.0,18.35)">
		<line fill="none" stroke="#999999" stroke-width="2" x1="59.856" y1="0" x2="59.856" y2="639.97"/>
	</g>
	<g transform="translate(0.0,14.175)">
		
			<text transform="matrix(1 0 0 1 46.763 -2.0002)" font-family="'HelveticaNeue-Light'" font-size="12" text-decoration=" underline">Note</text>
	</g>
</g>
<g transform="translate(233.0,226.25) rotate(0 132.0 7.75)">
	<g transform="translate(0.0,12.75)">
		<text transform="matrix(1 0 0 1 23.7129 -2)" font-family="'HelveticaNeue-Light'" font-size="12">(target: TodosController, action:addTodo)</text>
	</g>
</g>
<g transform="translate(634.0,291.0)">
	<line fill="none" stroke="#747474" stroke-width="2" stroke-dasharray="23,0" x1="0" y1="0" x2="145" y2="0"/>
	<g transform="translate(147.0,0.0) rotate(180.0)">
		<polygon fill="#747474" stroke="#747474" stroke-width="2" points="3,0 9,-3 9,3 		"/>
	</g>
	<g transform="translate(63.5,0.0)">
	</g>
</g>
<g transform="translate(656.0,270.0) rotate(0 55.0 11.0)">
	<g transform="translate(0.0,16.0)">
		<text transform="matrix(1 0 0 1 7.0205 -2)" font-family="'HelveticaNeue-Light'" font-size="12">create({text:</text>
		<text transform="matrix(1 0 0 1 71.0518 -2)" font-family="'ArialMT'" font-size="12">&apos;</text>
		<text transform="matrix(1 0 0 1 73.3428 -2)" font-family="'HelveticaNeue-Light'" font-size="12">text</text>
		<text transform="matrix(1 0 0 1 92.6846 -2)" font-family="'ArialMT'" font-size="12">&apos;</text>
		<text transform="matrix(1 0 0 1 94.9756 -2)" font-family="'ArialMT'" font-size="12">})</text>
	</g>
</g>
<g transform="translate(876.3891006647389,69.49999999999994) rotate(0 60.095470836064514 329.1600081819589)">
	<g transform="translate(0.0,0.0)">
		
			<linearGradient id="SVGID_5_" gradientUnits="userSpaceOnUse" x1="-1089.5073" y1="-20.6318" x2="-1089.5073" y2="-19.3818" gradientTransform="matrix(119.7121 0 0 18.35 130487.0781 374)">
			<stop  offset="0" style="stop-color:#FFFFFF"/>
			<stop  offset="1" style="stop-color:#999999"/>
		</linearGradient>
		<rect x="0" fill="url(#SVGID_5_)" stroke="#999999" stroke-width="2" width="119.714" height="18.35"/>
	</g>
	<g transform="translate(0.0,18.35)">
		<line fill="none" stroke="#999999" stroke-width="2" x1="59.856" y1="0" x2="59.856" y2="639.97"/>
	</g>
	<g transform="translate(0.0,14.175)">
		
			<text transform="matrix(1 0 0 1 18.0894 -2.0002)" font-family="'HelveticaNeue-Light'" font-size="12" text-decoration=" underline">ModelManager</text>
	</g>
</g>
<g transform="translate(787.0,309.0)">
	<line fill="none" stroke="#747474" stroke-width="2" stroke-dasharray="3,6" x1="0" y1="0" x2="-148" y2="0"/>
	<g transform="translate(-150.0,0.0) rotate(360.0)">
		<polygon fill="#747474" stroke="#747474" stroke-width="2" points="3,0 9,-3 9,3 		"/>
	</g>
	<g transform="translate(-85.0,0.0)">
	</g>
</g>
<g transform="translate(689.25,289.0) rotate(0 21.75 11.0)">
	<g transform="translate(0.0,16.0)">
		<text transform="matrix(1 0 0 1 10.0723 -2)" font-family="'HelveticaNeue-Light'" font-size="12">note</text>
	</g>
</g>
<g transform="translate(633.0,346.0)">
	<line fill="none" stroke="#747474" stroke-width="2" stroke-dasharray="23,0" x1="0" y1="0" x2="287" y2="0"/>
	<g transform="translate(289.0,0.0) rotate(180.0)">
		<polygon fill="#747474" stroke="#747474" stroke-width="2" points="3,0 9,-3 9,3 		"/>
	</g>
	<g transform="translate(134.5,0.0)">
	</g>
</g>
<g transform="translate(636.0,326.0) rotate(0 75.0 11.0)">
	<g transform="translate(0.0,16.0)">
		<text transform="matrix(1 0 0 1 49.3154 -2)" font-family="'HelveticaNeue-Light'" font-size="12">add(note)</text>
	</g>
</g>
<g transform="translate(643.75,388.75) rotate(0 22.25 11.25)">
	<polygon stroke="#000000" points="0,19.396 6.205,16.487 6.205,22.306 	"/>
	<path stroke="#000000" d="M0,0c23.639,0,35.458,3.232,35.458,9.698S23.639,19.396,0,19.396c23.639,0,35.458-3.232,35.458-9.698
		S23.639,0,0,0"/>
	<polygon stroke="#000000" points="0,19.396 6.205,16.487 6.205,22.306 	"/>
</g>
<g transform="translate(671.0,374.5) rotate(0 43.0 23.5)">
	<g transform="translate(0.0,20.5)">
		<text transform="matrix(1 0 0 1 12.6953 -2)" font-family="'ArialMT'" font-size="12">set(</text>
		<text transform="matrix(1 0 0 1 32.6992 -2)" font-family="'ArialMT'" font-size="12">&apos;</text>
		<text transform="matrix(1 0 0 1 34.9902 -2)" font-family="'ArialMT'" font-size="12">todos</text>
		<text transform="matrix(1 0 0 1 64.3457 -2)" font-family="'ArialMT'" font-size="12">&apos;</text>
		<text transform="matrix(1 0 0 1 66.6367 -2)" font-family="'ArialMT'" font-size="12">, </text>
		<text transform="matrix(1 0 0 1 21.6602 12.7998)" font-family="'HelveticaNeue-Light'" font-size="12">models)</text>
	</g>
</g>
<g transform="translate(1003.5911806010755,69.49999999999994) rotate(0 60.095470836064514 329.1600081819589)">
	<g transform="translate(0.0,0.0)">
		
			<linearGradient id="SVGID_6_" gradientUnits="userSpaceOnUse" x1="-1343.9105" y1="-20.6318" x2="-1343.9105" y2="-19.3818" gradientTransform="matrix(119.7121 0 0 18.35 160942.25 374)">
			<stop  offset="0" style="stop-color:#FFFFFF"/>
			<stop  offset="1" style="stop-color:#999999"/>
		</linearGradient>
		<rect x="0" fill="url(#SVGID_6_)" stroke="#999999" stroke-width="2" width="119.712" height="18.35"/>
	</g>
	<g transform="translate(0.0,18.35)">
		<line fill="none" stroke="#999999" stroke-width="2" x1="59.856" y1="0" x2="59.856" y2="639.97"/>
	</g>
	<g transform="translate(0.0,14.175)">
		
			<text transform="matrix(1 0 0 1 35.8639 -2.0002)" font-family="'HelveticaNeue-Light'" font-size="12" text-decoration=" underline">ListView</text>
	</g>
</g>
<g transform="translate(635.0,442.0)">
	<line fill="none" stroke="#747474" stroke-width="2" stroke-dasharray="23,0" x1="0" y1="0" x2="413" y2="0"/>
	<g transform="translate(415.0,0.0) rotate(180.0)">
		<polygon fill="#747474" stroke="#747474" stroke-width="2" points="3,0 9,-3 9,3 		"/>
	</g>
	<g transform="translate(197.5,0.0)">
	</g>
</g>
<g transform="translate(927.6300697598962,338.6778208164593) rotate(0 9.369930240103828 13.48326877531099)">
	<rect x="0" y="0" fill="#FFFFFF" stroke="#999999" stroke-width="2" width="18.373" height="26.859"/>
</g>
<g transform="translate(786.6300697598962,287.0127905111007) rotate(0 9.369930240103828 12.987209488899282)">
	<rect x="0" y="0" fill="#FFFFFF" stroke="#999999" stroke-width="2" width="18.373" height="25.871"/>
</g>
<g transform="translate(673.5,423.625) rotate(0 34.5 21.375)">
	<polygon fill="#FFFFFF" stroke="#000000" points="0,0 59.104,0 68.725,9.909 68.725,42.467 0,42.467 	"/>
	<line fill="none" stroke="#000000" x1="59.104" y1="0" x2="59.104" y2="9.909"/>
	<line fill="none" stroke="#000000" x1="59.104" y1="9.909" x2="68.725" y2="9.909"/>
	<g transform="translate(0.0,18.375)">
		<text transform="matrix(1 0 0 1 12.8203 -2)" font-family="'ArialMT'" font-size="12">for each</text>
		<text transform="matrix(1 0 0 1 11.1562 12.7998)" font-family="'HelveticaNeue-Light'" font-size="12">observer</text>
	</g>
</g>
<g transform="translate(792.0,424.0) rotate(0 75.0 11.0)">
	<g transform="translate(0.0,16.0)">
		<text transform="matrix(1 0 0 1 21.3018 -2)" font-family="'HelveticaNeue-Light'" font-size="12">contentDidChange()</text>
	</g>
</g>
<g transform="translate(677.5,509.5) rotate(0 54.5 23.5)">
	<g transform="translate(0.0,28.5)">
		<text transform="matrix(1 0 0 1 5.4775 -2)" font-family="'HelveticaNeue-Light'" font-size="12">calculateCounter()</text>
	</g>
</g>
<g transform="translate(644.75,535.75) rotate(0 22.25 11.25)">
	<polygon stroke="#000000" points="0,19.396 6.205,16.487 6.205,22.306 	"/>
	<path stroke="#000000" d="M0,0c23.639,0,35.458,3.232,35.458,9.698S23.639,19.396,0,19.396c23.639,0,35.458-3.232,35.458-9.698
		S23.639,0,0,0"/>
	<polygon stroke="#000000" points="0,19.396 6.205,16.487 6.205,22.306 	"/>
</g>
<g transform="translate(634.0,585.0)">
	<line fill="none" stroke="#747474" stroke-width="2" stroke-dasharray="23,0" x1="0" y1="0" x2="554" y2="0"/>
	<g transform="translate(556.0,0.0) rotate(180.0)">
		<polygon fill="#747474" stroke="#747474" stroke-width="2" points="3,0 9,-3 9,3 		"/>
	</g>
	<g transform="translate(268.0,0.0)">
	</g>
</g>
<g transform="translate(672.5,561.625) rotate(0 34.5 21.375)">
	<polygon fill="#FFFFFF" stroke="#000000" points="0,0 59.104,0 68.725,9.909 68.725,42.467 0,42.467 	"/>
	<line fill="none" stroke="#000000" x1="59.104" y1="0" x2="59.104" y2="9.909"/>
	<line fill="none" stroke="#000000" x1="59.104" y1="9.909" x2="68.725" y2="9.909"/>
	<g transform="translate(0.0,18.375)">
		<text transform="matrix(1 0 0 1 12.8203 -2)" font-family="'HelveticaNeue-Light'" font-size="12">for each</text>
		<text transform="matrix(1 0 0 1 11.1562 12.7998)" font-family="'ArialMT'" font-size="12">observer</text>
	</g>
</g>
<g transform="translate(791.0,562.0) rotate(0 75.0 11.0)">
	<g transform="translate(0.0,16.0)">
		<text transform="matrix(1 0 0 1 21.3018 -2)" font-family="'HelveticaNeue-Light'" font-size="12">contentDidChange()</text>
	</g>
</g>
<g transform="translate(1140.7613256309735,71.83669223146978) rotate(0 60.095470836064514 329.1600081819589)">
	<g transform="translate(0.0,0.0)">
		
			<linearGradient id="SVGID_7_" gradientUnits="userSpaceOnUse" x1="-1618.2511" y1="-20.7405" x2="-1618.2511" y2="-19.4905" gradientTransform="matrix(119.7121 0 0 18.35 193784.1406 374.01)">
			<stop  offset="0" style="stop-color:#FFFFFF"/>
			<stop  offset="1" style="stop-color:#999999"/>
		</linearGradient>
		<rect x="0" y="-2" fill="url(#SVGID_7_)" stroke="#999999" stroke-width="2" width="119.712" height="18.35"/>
	</g>
	<g transform="translate(0.0,18.35)">
		<line fill="none" stroke="#999999" stroke-width="2" x1="59.856" y1="-2" x2="59.856" y2="637.97"/>
	</g>
	<g transform="translate(0.0,14.175)">
		
			<text transform="matrix(1 0 0 1 30.8597 -3.9999)" font-family="'HelveticaNeue-Light'" font-size="12" text-decoration=" underline">LabelView</text>
	</g>
</g>
<g transform="translate(1191.630069759896,574.8556416329187) rotate(0 9.369930240103828 25.14435836708128)">
	<rect x="0" y="0" fill="#FFFFFF" stroke="#999999" stroke-width="2" width="18.373" height="50.089"/>
</g>
<g transform="translate(1053.630069759896,435.2876452555503) rotate(0 9.369930240103828 32.712354744449726)">
	<rect x="0" y="0" fill="#FFFFFF" stroke="#999999" stroke-width="2" width="18.373" height="65.163"/>
</g>
<g transform="translate(1085.5,458.75) rotate(0 22.5 11.25)">
	<polygon stroke="#000000" points="0,19.396 6.275,16.487 6.275,22.306 	"/>
	<path stroke="#000000" d="M0,0c23.904,0,35.855,3.232,35.855,9.698S23.904,19.396,0,19.396c23.904,0,35.855-3.232,35.855-9.698
		S23.904,0,0,0"/>
	<polygon stroke="#000000" points="0,19.396 6.275,16.487 6.275,22.306 	"/>
</g>
<g transform="translate(1121.5,438.5) rotate(0 45.5 23.5)">
	<g transform="translate(0.0,28.5)">
		<text transform="matrix(1 0 0 1 4.8125 -2)" font-family="'HelveticaNeue-Light'" font-size="12">renderUpdate()</text>
	</g>
</g>
<g transform="translate(214.63006975989617,129.31534963734157) rotate(0 9.369930240103828 264.02697554398765)">
	<rect x="0" y="0" fill="#FFFFFF" stroke="#999999" stroke-width="2" width="18.373" height="525.95"/>
</g>
<g transform="translate(1210.5,589.75) rotate(0 22.5 11.25)">
	<polygon stroke="#000000" points="0,19.396 6.275,16.487 6.275,22.306 	"/>
	<path stroke="#000000" d="M0,0c23.904,0,35.855,3.232,35.855,9.698S23.904,19.396,0,19.396c23.904,0,35.855-3.232,35.855-9.698
		S23.904,0,0,0"/>
	<polygon stroke="#000000" points="0,19.396 6.275,16.487 6.275,22.306 	"/>
</g>
<g transform="translate(1219.0,567.5) rotate(0 75.0 23.5)">
	<g transform="translate(0.0,28.5)">
		<text transform="matrix(1 0 0 1 34.3125 -2)" font-family="'HelveticaNeue-Light'" font-size="12">renderUpdate()</text>
	</g>
</g>
<g transform="translate(623.6300697598962,383.2834624493779) rotate(0 9.369930240103828 17.716537550622093)">
	<rect x="0" y="0" fill="#FFFFFF" stroke="#999999" stroke-width="2" width="18.373" height="35.292"/>
</g>
<g transform="translate(624.6300697598962,529.2834624493779) rotate(0 9.369930240103828 17.716537550622093)">
	<rect x="0" y="0" fill="#FFFFFF" stroke="#999999" stroke-width="2" width="18.373" height="35.292"/>
</g>
<g transform="translate(1065.630069759896,450.2834624493779) rotate(0 9.369930240103828 17.716537550622093)">
	<rect x="0" y="0" fill="#FFFFFF" stroke="#999999" stroke-width="2" width="18.373" height="35.292"/>
</g>
<g transform="translate(927.0,365.0)">
	<line fill="none" stroke="#747474" stroke-width="2" stroke-dasharray="3,6" x1="0" y1="0" x2="-285" y2="0"/>
	<g transform="translate(-287.0,0.0) rotate(360.0)">
		<polygon fill="#747474" stroke="#747474" stroke-width="2" points="3,0 9,-3 9,3 		"/>
	</g>
	<g transform="translate(-153.5,0.0)">
	</g>
</g>
<g transform="translate(638.0,499.0)">
	<line fill="none" stroke="#747474" stroke-width="2" stroke-dasharray="3,6" x1="2" y1="0" x2="415" y2="0"/>
	<g transform="translate(0.0,0.0) rotate(0.0)">
		<polygon fill="#747474" stroke="#747474" stroke-width="2" points="3,0 9,-3 9,3 		"/>
	</g>
	<g transform="translate(197.5,0.0)">
	</g>
</g>
<g transform="translate(1189.0,625.0)">
	<line fill="none" stroke="#747474" stroke-width="2" stroke-dasharray="3,6" x1="0" y1="0" x2="-547" y2="0"/>
	<g transform="translate(-549.0,0.0) rotate(360.0)">
		<polygon fill="#747474" stroke="#747474" stroke-width="2" points="3,0 9,-3 9,3 		"/>
	</g>
	<g transform="translate(-284.5,0.0)">
	</g>
</g>
<g transform="translate(614.0,644.0)">
	<line fill="none" stroke="#747474" stroke-width="2" stroke-dasharray="3,6" x1="0" y1="0" x2="-374" y2="0"/>
	<g transform="translate(-376.0,0.0) rotate(360.0)">
		<polygon fill="#747474" stroke="#747474" stroke-width="2" points="3,0 9,-3 9,3 		"/>
	</g>
	<g transform="translate(-198.0,0.0)">
	</g>
</g>
<g transform="translate(21.0,68.0) rotate(0 31.25 50.0)">
	<circle fill="#FFFFFF" stroke="#000000" cx="31.043" cy="9.96" r="10.348"/>
	<line fill="none" stroke="#000000" x1="31.043" y1="19.92" x2="31.043" y2="59.761"/>
	<line fill="none" stroke="#000000" x1="31.043" y1="59.761" x2="20.695" y2="99.602"/>
	<line fill="none" stroke="#000000" x1="31.043" y1="59.761" x2="41.391" y2="99.602"/>
	<line fill="none" stroke="#000000" x1="31.043" y1="59.761" x2="41.391" y2="99.602"/>
	<line fill="none" stroke="#000000" x1="0" y1="29.88" x2="62.086" y2="29.88"/>
</g>
<g transform="translate(8.999999999999986,175.125) rotate(0 49.000000000000014 55.875)">
	<polygon fill="#FFFFFF" stroke="#000000" points="0,0 83.944,0 97.609,25.902 97.609,111.01 0,111.01 	"/>
	<line fill="none" stroke="#000000" x1="83.944" y1="0" x2="83.944" y2="25.902"/>
	<line fill="none" stroke="#000000" x1="83.944" y1="25.902" x2="97.609" y2="25.902"/>
	<g transform="translate(0.0,45.875)">
		<text transform="matrix(1 0 0 1 19.999 -2)" font-family="'HelveticaNeue-Light'" font-size="12">User clicks</text>
		<text transform="matrix(1 0 0 1 22.3633 12.7998)" font-family="'ArialMT'" font-size="12">&apos;</text>
		<text transform="matrix(1 0 0 1 24.6543 12.7998)" font-family="'ArialMT'" font-size="12">R</text>
		<text transform="matrix(1 0 0 1 33.3203 12.7998)" font-family="'HelveticaNeue-Light'" font-size="12">eturn&apos;</text>
		<text transform="matrix(1 0 0 1 62.9629 12.7998)" font-family="'ArialMT'" font-size="12"> </text>
		<text transform="matrix(1 0 0 1 66.2969 12.7998)" font-family="'ArialMT'" font-size="12">in</text>
		<text transform="matrix(1 0 0 1 26.9893 27.5996)" font-family="'HelveticaNeue-Light'" font-size="12">Textfield</text>
	</g>
</g>
<g transform="translate(731.0,869.0)">
	<path fill="none" stroke="#747474" stroke-width="2" stroke-dasharray="3,6" d="M-242,0"/>
	<path fill="none" stroke="#747474" stroke-width="2" stroke-dasharray="3,6" d="M0,0"/>
	<g transform="translate(-132.0,0.0)">
	</g>
</g>
</svg>
